<mxfile host="app.diagrams.net" modified="2024-05-20T06:09:10.560Z" agent="Mozilla/5.0 (Windows NT 10.0; Win64; x64) AppleWebKit/537.36 (KHTML, like Gecko) Chrome/114.0.0.0 Safari/537.36" version="24.4.4" etag="eieAZBcBnj7LErzQON8f" type="github">
  <diagram name="Page-1" id="Ee5Gz0VehV1MUg22xdpq">
    <mxGraphModel>
      <root>
        <mxCell id="0" />
        <mxCell id="1" parent="0" />
      </root>
    </mxGraphModel>
  </diagram>
</mxfile>
